<mxfile host="Electron" modified="2024-02-18T10:30:53.375Z" agent="Mozilla/5.0 (Windows NT 10.0; Win64; x64) AppleWebKit/537.36 (KHTML, like Gecko) draw.io/23.1.5 Chrome/120.0.6099.109 Electron/28.1.0 Safari/537.36" etag="Lif9IefOPsQ5yRz0LDnY" version="23.1.5" type="device">
  <diagram name="Page-1" id="2ca16b54-16f6-2749-3443-fa8db7711227">
    <mxGraphModel dx="1232" dy="1180" grid="1" gridSize="10" guides="1" tooltips="1" connect="1" arrows="1" fold="1" page="1" pageScale="1" pageWidth="1100" pageHeight="850" background="none" math="0" shadow="0">
      <root>
        <mxCell id="0" />
        <mxCell id="1" parent="0" />
        <mxCell id="2ed32ef02a7f4228-1" value="&lt;div style=&quot;box-sizing:border-box;width:100%;background:#e4e4e4;padding:2px;&quot;&gt;BuildingWarehouse&lt;/div&gt;&lt;table style=&quot;width:100%;font-size:1em;&quot; cellpadding=&quot;2&quot; cellspacing=&quot;0&quot;&gt;&lt;tbody&gt;&lt;tr&gt;&lt;td&gt;PK&lt;/td&gt;&lt;td&gt;Id&lt;/td&gt;&lt;/tr&gt;&lt;tr&gt;&lt;td&gt;FK1&lt;/td&gt;&lt;td&gt;BuildingId&lt;/td&gt;&lt;/tr&gt;&lt;tr&gt;&lt;td&gt;FK2&lt;/td&gt;&lt;td&gt;WarehousId&lt;/td&gt;&lt;/tr&gt;&lt;/tbody&gt;&lt;/table&gt;" style="verticalAlign=top;align=left;overflow=fill;html=1;rounded=0;shadow=0;comic=0;labelBackgroundColor=none;strokeWidth=1;fontFamily=Verdana;fontSize=12;fillColor=#d5e8d4;strokeColor=#82b366;" parent="1" vertex="1">
          <mxGeometry x="520" y="60" width="180" height="90" as="geometry" />
        </mxCell>
        <mxCell id="2ed32ef02a7f4228-19" style="html=1;dashed=1;labelBackgroundColor=none;startArrow=ERmandOne;endArrow=ERoneToMany;fontFamily=Verdana;fontSize=12;align=left;entryX=0.5;entryY=0;edgeStyle=orthogonalEdgeStyle;entryDx=0;entryDy=0;" parent="1" source="2ed32ef02a7f4228-2" target="2ed32ef02a7f4228-10" edge="1">
          <mxGeometry relative="1" as="geometry" />
        </mxCell>
        <mxCell id="2ed32ef02a7f4228-20" style="html=1;dashed=1;labelBackgroundColor=none;startArrow=ERmandOne;endArrow=ERoneToMany;fontFamily=Verdana;fontSize=12;align=left;exitX=0.011;exitY=0.4;exitDx=0;exitDy=0;edgeStyle=orthogonalEdgeStyle;entryX=1;entryY=0.75;entryDx=0;entryDy=0;exitPerimeter=0;" parent="1" source="2ed32ef02a7f4228-11" target="2ed32ef02a7f4228-1" edge="1">
          <mxGeometry relative="1" as="geometry">
            <mxPoint x="670" y="160" as="targetPoint" />
          </mxGeometry>
        </mxCell>
        <mxCell id="2ed32ef02a7f4228-2" value="&lt;div style=&quot;box-sizing: border-box ; width: 100% ; background: #e4e4e4 ; padding: 2px&quot;&gt;Building&lt;/div&gt;&lt;table style=&quot;width: 100% ; font-size: 1em&quot; cellpadding=&quot;2&quot; cellspacing=&quot;0&quot;&gt;&lt;tbody&gt;&lt;tr&gt;&lt;td&gt;PK&lt;/td&gt;&lt;td&gt;Id&lt;/td&gt;&lt;/tr&gt;&lt;tr&gt;&lt;td&gt;&lt;br&gt;&lt;/td&gt;&lt;td&gt;Name&lt;/td&gt;&lt;/tr&gt;&lt;tr&gt;&lt;td&gt;&lt;/td&gt;&lt;td&gt;Number&lt;/td&gt;&lt;/tr&gt;&lt;tr&gt;&lt;td&gt;&lt;br&gt;&lt;/td&gt;&lt;td&gt;Street&lt;br&gt;&lt;/td&gt;&lt;/tr&gt;&lt;tr&gt;&lt;td&gt;&lt;br&gt;&lt;/td&gt;&lt;td&gt;&lt;br&gt;&lt;/td&gt;&lt;/tr&gt;&lt;tr&gt;&lt;td&gt;&lt;br&gt;&lt;/td&gt;&lt;td&gt;&lt;br&gt;&lt;/td&gt;&lt;/tr&gt;&lt;/tbody&gt;&lt;/table&gt;" style="verticalAlign=top;align=left;overflow=fill;html=1;rounded=0;shadow=0;comic=0;labelBackgroundColor=none;strokeWidth=1;fontFamily=Verdana;fontSize=12;fillColor=#d5e8d4;strokeColor=#82b366;" parent="1" vertex="1">
          <mxGeometry x="130" y="80" width="180" height="110" as="geometry" />
        </mxCell>
        <mxCell id="2ed32ef02a7f4228-6" value="&lt;div style=&quot;box-sizing: border-box ; width: 100% ; background: #e4e4e4 ; padding: 2px&quot;&gt;ProductInventory&lt;/div&gt;&lt;table style=&quot;width: 100% ; font-size: 1em&quot; cellpadding=&quot;2&quot; cellspacing=&quot;0&quot;&gt;&lt;tbody&gt;&lt;tr&gt;&lt;td&gt;PK&lt;/td&gt;&lt;td&gt;Id&lt;/td&gt;&lt;/tr&gt;&lt;tr&gt;&lt;td&gt;&lt;br&gt;&lt;/td&gt;&lt;td&gt;Name&lt;/td&gt;&lt;/tr&gt;&lt;tr&gt;&lt;td&gt;&lt;/td&gt;&lt;td&gt;Manifacturer&lt;/td&gt;&lt;/tr&gt;&lt;tr&gt;&lt;td&gt;&lt;br&gt;&lt;/td&gt;&lt;td&gt;Type&lt;/td&gt;&lt;/tr&gt;&lt;tr&gt;&lt;td&gt;&lt;br&gt;&lt;/td&gt;&lt;td&gt;Size&lt;br&gt;SalePrice&lt;/td&gt;&lt;/tr&gt;&lt;/tbody&gt;&lt;/table&gt;" style="verticalAlign=top;align=left;overflow=fill;html=1;rounded=0;shadow=0;comic=0;labelBackgroundColor=none;strokeWidth=1;fontFamily=Verdana;fontSize=12;fillColor=#d5e8d4;strokeColor=#82b366;" parent="1" vertex="1">
          <mxGeometry x="830" y="550" width="150" height="130" as="geometry" />
        </mxCell>
        <mxCell id="2ed32ef02a7f4228-9" value="&lt;div style=&quot;box-sizing:border-box;width:100%;background:#e4e4e4;padding:2px;&quot;&gt;WarehouseInventory&lt;/div&gt;&lt;table style=&quot;width:100%;font-size:1em;&quot; cellpadding=&quot;2&quot; cellspacing=&quot;0&quot;&gt;&lt;tbody&gt;&lt;tr&gt;&lt;td&gt;PK&lt;/td&gt;&lt;td&gt;Id&lt;/td&gt;&lt;/tr&gt;&lt;tr&gt;&lt;td&gt;FK1&lt;/td&gt;&lt;td&gt;WarehouseId&lt;/td&gt;&lt;/tr&gt;&lt;tr&gt;&lt;td&gt;FK2&lt;br&gt;&lt;br&gt;&lt;br&gt;&lt;/td&gt;&lt;td&gt;ProductInventoryId&lt;br&gt;Count&lt;br&gt;Capacity&lt;br&gt;Notes&lt;/td&gt;&lt;/tr&gt;&lt;/tbody&gt;&lt;/table&gt;" style="verticalAlign=top;align=left;overflow=fill;html=1;rounded=0;shadow=0;comic=0;labelBackgroundColor=none;strokeWidth=1;fontFamily=Verdana;fontSize=12;" parent="1" vertex="1">
          <mxGeometry x="830" y="280" width="180" height="140" as="geometry" />
        </mxCell>
        <mxCell id="2ed32ef02a7f4228-21" style="edgeStyle=orthogonalEdgeStyle;html=1;entryX=0.5;entryY=0;dashed=1;labelBackgroundColor=none;startArrow=ERmandOne;endArrow=ERoneToMany;fontFamily=Verdana;fontSize=12;align=left;" parent="1" source="2ed32ef02a7f4228-11" target="2ed32ef02a7f4228-9" edge="1">
          <mxGeometry relative="1" as="geometry" />
        </mxCell>
        <mxCell id="2ed32ef02a7f4228-10" value="&lt;div style=&quot;box-sizing: border-box ; width: 100% ; background: #e4e4e4 ; padding: 2px&quot;&gt;Room&lt;/div&gt;&lt;table style=&quot;width: 100% ; font-size: 1em&quot; cellpadding=&quot;2&quot; cellspacing=&quot;0&quot;&gt;&lt;tbody&gt;&lt;tr&gt;&lt;td&gt;PK&lt;/td&gt;&lt;td&gt;Id&lt;/td&gt;&lt;/tr&gt;&lt;tr&gt;&lt;td&gt;FK1&lt;/td&gt;&lt;td&gt;BuildingId&lt;/td&gt;&lt;/tr&gt;&lt;tr&gt;&lt;td&gt;&lt;/td&gt;&lt;td&gt;No&lt;/td&gt;&lt;/tr&gt;&lt;tr&gt;&lt;td&gt;&lt;br&gt;&lt;/td&gt;&lt;td&gt;Floor&lt;br&gt;Capacity&lt;br&gt;HasMinibar&lt;br&gt;Notes&lt;/td&gt;&lt;/tr&gt;&lt;tr&gt;&lt;td&gt;&lt;br&gt;&lt;/td&gt;&lt;td&gt;&lt;/td&gt;&lt;/tr&gt;&lt;/tbody&gt;&lt;/table&gt;" style="verticalAlign=top;align=left;overflow=fill;html=1;rounded=0;shadow=0;comic=0;labelBackgroundColor=none;strokeWidth=1;fontFamily=Verdana;fontSize=12;fillColor=#d5e8d4;strokeColor=#82b366;" parent="1" vertex="1">
          <mxGeometry x="130" y="350" width="180" height="140" as="geometry" />
        </mxCell>
        <mxCell id="2ed32ef02a7f4228-11" value="&lt;div style=&quot;box-sizing:border-box;width:100%;background:#e4e4e4;padding:2px;&quot;&gt;Warehouse&lt;/div&gt;&lt;table style=&quot;width:100%;font-size:1em;&quot; cellpadding=&quot;2&quot; cellspacing=&quot;0&quot;&gt;&lt;tbody&gt;&lt;tr&gt;&lt;td&gt;PK&lt;/td&gt;&lt;td&gt;Id&lt;/td&gt;&lt;/tr&gt;&lt;tr&gt;&lt;td&gt;FK1&lt;/td&gt;&lt;td&gt;BuildingId&lt;/td&gt;&lt;/tr&gt;&lt;tr&gt;&lt;td&gt;&lt;/td&gt;&lt;td&gt;Name&lt;br&gt;No&lt;br&gt;Floor&lt;br&gt;Capacity&lt;br&gt;Content&lt;br&gt;Notes&lt;/td&gt;&lt;/tr&gt;&lt;/tbody&gt;&lt;/table&gt;" style="verticalAlign=top;align=left;overflow=fill;html=1;rounded=0;shadow=0;comic=0;labelBackgroundColor=none;strokeWidth=1;fontFamily=Verdana;fontSize=12;fillColor=#d5e8d4;strokeColor=#82b366;" parent="1" vertex="1">
          <mxGeometry x="830" y="60" width="180" height="150" as="geometry" />
        </mxCell>
        <mxCell id="mTXAe7J57VP8RMJUM_ci-1" style="html=1;dashed=1;labelBackgroundColor=none;startArrow=ERmandOne;endArrow=ERoneToMany;fontFamily=Verdana;fontSize=12;align=left;edgeStyle=orthogonalEdgeStyle;entryX=0;entryY=0.5;entryDx=0;entryDy=0;exitX=1;exitY=0.5;exitDx=0;exitDy=0;" parent="1" source="2ed32ef02a7f4228-2" target="2ed32ef02a7f4228-1" edge="1">
          <mxGeometry relative="1" as="geometry">
            <mxPoint x="320" y="90" as="sourcePoint" />
            <mxPoint x="783" y="128" as="targetPoint" />
          </mxGeometry>
        </mxCell>
        <mxCell id="mTXAe7J57VP8RMJUM_ci-2" style="edgeStyle=orthogonalEdgeStyle;html=1;entryX=0.25;entryY=1;dashed=1;labelBackgroundColor=none;startArrow=ERmandOne;endArrow=ERoneToMany;fontFamily=Verdana;fontSize=12;align=left;entryDx=0;entryDy=0;exitX=0.447;exitY=0.008;exitDx=0;exitDy=0;exitPerimeter=0;" parent="1" source="2ed32ef02a7f4228-6" target="2ed32ef02a7f4228-9" edge="1">
          <mxGeometry relative="1" as="geometry">
            <mxPoint x="950" y="180" as="sourcePoint" />
            <mxPoint x="940" y="290" as="targetPoint" />
          </mxGeometry>
        </mxCell>
        <mxCell id="mTXAe7J57VP8RMJUM_ci-4" value="&lt;div style=&quot;box-sizing: border-box ; width: 100% ; background: #e4e4e4 ; padding: 2px&quot;&gt;SaleOrder&lt;/div&gt;&lt;table style=&quot;width: 100% ; font-size: 1em&quot; cellpadding=&quot;2&quot; cellspacing=&quot;0&quot;&gt;&lt;tbody&gt;&lt;tr&gt;&lt;td&gt;PK&lt;/td&gt;&lt;td&gt;Id&lt;/td&gt;&lt;/tr&gt;&lt;tr&gt;&lt;td&gt;FK1&lt;/td&gt;&lt;td&gt;RoomId&lt;/td&gt;&lt;/tr&gt;&lt;tr&gt;&lt;td&gt;FK2&lt;/td&gt;&lt;td&gt;WarehouseInventoryId&lt;/td&gt;&lt;/tr&gt;&lt;tr&gt;&lt;td&gt;&lt;br&gt;&lt;/td&gt;&lt;td&gt;Count&lt;/td&gt;&lt;/tr&gt;&lt;tr&gt;&lt;td&gt;&lt;br&gt;&lt;/td&gt;&lt;td&gt;IsCompleted&lt;br&gt;Notes&lt;/td&gt;&lt;/tr&gt;&lt;/tbody&gt;&lt;/table&gt;" style="verticalAlign=top;align=left;overflow=fill;html=1;rounded=0;shadow=0;comic=0;labelBackgroundColor=none;strokeWidth=1;fontFamily=Verdana;fontSize=12;" parent="1" vertex="1">
          <mxGeometry x="480" y="250" width="180" height="140" as="geometry" />
        </mxCell>
        <mxCell id="mTXAe7J57VP8RMJUM_ci-5" value="&lt;div style=&quot;box-sizing: border-box ; width: 100% ; background: #e4e4e4 ; padding: 2px&quot;&gt;Issue&lt;/div&gt;&lt;table style=&quot;width: 100% ; font-size: 1em&quot; cellpadding=&quot;2&quot; cellspacing=&quot;0&quot;&gt;&lt;tbody&gt;&lt;tr&gt;&lt;td&gt;PK&lt;/td&gt;&lt;td&gt;Id&lt;/td&gt;&lt;/tr&gt;&lt;tr&gt;&lt;td&gt;FK1&lt;/td&gt;&lt;td&gt;BuildingId&lt;/td&gt;&lt;/tr&gt;&lt;tr&gt;&lt;td&gt;FK2&lt;/td&gt;&lt;td&gt;RoomId&lt;br&gt;&lt;/td&gt;&lt;/tr&gt;&lt;tr&gt;&lt;td&gt;FK3&lt;br&gt;FK4&lt;/td&gt;&lt;td&gt;WarehouseInventoryId&lt;br&gt;ProductInventoryId&lt;/td&gt;&lt;/tr&gt;&lt;tr&gt;&lt;td&gt;&lt;br&gt;&lt;br&gt;&lt;/td&gt;&lt;td&gt;Type&lt;br&gt;IsCompleted&lt;br&gt;CompletedTime&lt;br&gt;Notes&lt;br&gt;Assignee&lt;/td&gt;&lt;/tr&gt;&lt;/tbody&gt;&lt;/table&gt;" style="verticalAlign=top;align=left;overflow=fill;html=1;rounded=0;shadow=0;comic=0;labelBackgroundColor=none;strokeWidth=1;fontFamily=Verdana;fontSize=12;fillColor=#d5e8d4;strokeColor=#82b366;" parent="1" vertex="1">
          <mxGeometry x="130" y="600" width="180" height="190" as="geometry" />
        </mxCell>
        <mxCell id="mTXAe7J57VP8RMJUM_ci-6" style="edgeStyle=orthogonalEdgeStyle;html=1;entryX=1;entryY=0.5;dashed=1;labelBackgroundColor=none;startArrow=ERmandOne;endArrow=ERoneToMany;fontFamily=Verdana;fontSize=12;align=left;entryDx=0;entryDy=0;exitX=0;exitY=0.5;exitDx=0;exitDy=0;" parent="1" source="2ed32ef02a7f4228-9" target="mTXAe7J57VP8RMJUM_ci-4" edge="1">
          <mxGeometry relative="1" as="geometry">
            <mxPoint x="907" y="521" as="sourcePoint" />
            <mxPoint x="885" y="400" as="targetPoint" />
          </mxGeometry>
        </mxCell>
        <mxCell id="mTXAe7J57VP8RMJUM_ci-7" style="edgeStyle=orthogonalEdgeStyle;html=1;entryX=0.25;entryY=1;dashed=1;labelBackgroundColor=none;startArrow=ERmandOne;endArrow=ERoneToMany;fontFamily=Verdana;fontSize=12;align=left;entryDx=0;entryDy=0;exitX=1;exitY=0.5;exitDx=0;exitDy=0;" parent="1" source="2ed32ef02a7f4228-10" target="mTXAe7J57VP8RMJUM_ci-4" edge="1">
          <mxGeometry relative="1" as="geometry">
            <mxPoint x="500" y="437" as="sourcePoint" />
            <mxPoint x="330" y="412" as="targetPoint" />
          </mxGeometry>
        </mxCell>
        <mxCell id="mTXAe7J57VP8RMJUM_ci-8" value="&lt;div style=&quot;box-sizing: border-box ; width: 100% ; background: #e4e4e4 ; padding: 2px&quot;&gt;Accounting&lt;/div&gt;&lt;table style=&quot;width: 100% ; font-size: 1em&quot; cellpadding=&quot;2&quot; cellspacing=&quot;0&quot;&gt;&lt;tbody&gt;&lt;tr&gt;&lt;td&gt;PK&lt;/td&gt;&lt;td&gt;Id&lt;/td&gt;&lt;/tr&gt;&lt;tr&gt;&lt;td&gt;FK1&lt;/td&gt;&lt;td&gt;ProductInventoryId&lt;/td&gt;&lt;/tr&gt;&lt;tr&gt;&lt;td&gt;FK2&lt;/td&gt;&lt;td&gt;OrderId&lt;/td&gt;&lt;/tr&gt;&lt;tr&gt;&lt;td&gt;&lt;br&gt;&lt;/td&gt;&lt;td&gt;Count&lt;/td&gt;&lt;/tr&gt;&lt;tr&gt;&lt;td&gt;&lt;br&gt;&lt;/td&gt;&lt;td&gt;SalePrice&lt;br&gt;Amount&lt;br&gt;Tax&lt;br&gt;InvoiceDate&lt;br&gt;InvoiceNumber&lt;br&gt;Type&lt;br&gt;PurchasePrice&lt;br&gt;&lt;/td&gt;&lt;/tr&gt;&lt;/tbody&gt;&lt;/table&gt;" style="verticalAlign=top;align=left;overflow=fill;html=1;rounded=0;shadow=0;comic=0;labelBackgroundColor=none;strokeWidth=1;fontFamily=Verdana;fontSize=12;" parent="1" vertex="1">
          <mxGeometry x="590" y="560" width="150" height="210" as="geometry" />
        </mxCell>
        <mxCell id="QDCcApREQVBpUAHBd17L-1" style="edgeStyle=orthogonalEdgeStyle;html=1;dashed=1;labelBackgroundColor=none;startArrow=ERmandOne;endArrow=ERoneToMany;fontFamily=Verdana;fontSize=12;align=left;exitX=0;exitY=0.5;exitDx=0;exitDy=0;entryX=0.993;entryY=0.429;entryDx=0;entryDy=0;entryPerimeter=0;" parent="1" source="2ed32ef02a7f4228-6" target="mTXAe7J57VP8RMJUM_ci-8" edge="1">
          <mxGeometry relative="1" as="geometry">
            <mxPoint x="907" y="561" as="sourcePoint" />
            <mxPoint x="720" y="470" as="targetPoint" />
          </mxGeometry>
        </mxCell>
        <mxCell id="QDCcApREQVBpUAHBd17L-2" style="edgeStyle=orthogonalEdgeStyle;html=1;dashed=1;labelBackgroundColor=none;startArrow=ERmandOne;endArrow=ERoneToMany;fontFamily=Verdana;fontSize=12;align=left;exitX=0.75;exitY=1;exitDx=0;exitDy=0;" parent="1" source="mTXAe7J57VP8RMJUM_ci-4" target="mTXAe7J57VP8RMJUM_ci-8" edge="1">
          <mxGeometry relative="1" as="geometry">
            <mxPoint x="681" y="425" as="sourcePoint" />
            <mxPoint x="590" y="460" as="targetPoint" />
          </mxGeometry>
        </mxCell>
      </root>
    </mxGraphModel>
  </diagram>
</mxfile>
